<svg id="visual" viewBox="0 0 900 600" width="900" height="600" xmlns="http://www.w3.org/2000/svg" xmlns:xlink="http://www.w3.org/1999/xlink" version="1.1"><rect x="0" y="0" width="900" height="600" fill="#171027"></rect><defs><linearGradient id="grad1_0" x1="33.3%" y1="100%" x2="100%" y2="0%"><stop offset="20%" stop-color="#8e00b6" stop-opacity="1"></stop><stop offset="80%" stop-color="#8e00b6" stop-opacity="1"></stop></linearGradient></defs><defs><linearGradient id="grad1_1" x1="33.3%" y1="100%" x2="100%" y2="0%"><stop offset="20%" stop-color="#8e00b6" stop-opacity="1"></stop><stop offset="80%" stop-color="#171027" stop-opacity="1"></stop></linearGradient></defs><defs><linearGradient id="grad2_0" x1="0%" y1="100%" x2="66.7%" y2="0%"><stop offset="20%" stop-color="#8e00b6" stop-opacity="1"></stop><stop offset="80%" stop-color="#8e00b6" stop-opacity="1"></stop></linearGradient></defs><defs><linearGradient id="grad2_1" x1="0%" y1="100%" x2="66.7%" y2="0%"><stop offset="20%" stop-color="#171027" stop-opacity="1"></stop><stop offset="80%" stop-color="#8e00b6" stop-opacity="1"></stop></linearGradient></defs><g transform="translate(900, 600)"><path d="M-324.5 0C-317.1 -28.4 -309.7 -56.9 -296.5 -79.5C-283.3 -102.1 -264.3 -118.8 -256.3 -148C-248.4 -177.2 -251.6 -218.7 -229.5 -229.5C-207.3 -240.2 -160 -220.3 -133 -230.4C-106 -240.5 -99.5 -280.7 -80.8 -301.4C-62 -322.1 -31 -323.3 0 -324.5L0 0Z" fill="#451d70"></path><path d="M-162.2 0C-158.6 -14.2 -154.9 -28.4 -148.3 -39.7C-141.7 -51 -132.1 -59.4 -128.2 -74C-124.2 -88.6 -125.8 -109.3 -114.7 -114.7C-103.7 -120.1 -80 -110.1 -66.5 -115.2C-53 -120.2 -49.8 -140.3 -40.4 -150.7C-31 -161 -15.5 -161.6 0 -162.2L0 0Z" fill="#8e00b6"></path></g><g transform="translate(0, 0)"><path d="M324.5 0C306.2 25.2 288 50.4 278.2 74.5C268.4 98.7 267.1 121.9 262.4 151.5C257.7 181.1 249.6 217 222.7 222.7C195.8 228.4 150.1 203.9 126.5 219.1C102.9 234.3 101.4 289.3 84 313.4C66.6 337.6 33.3 331.1 0 324.5L0 0Z" fill="#451d70"></path><path d="M162.2 0C153.1 12.6 144 25.2 139.1 37.3C134.2 49.4 133.5 61 131.2 75.7C128.9 90.5 124.8 108.5 111.4 111.4C97.9 114.2 75.1 102 63.3 109.6C51.4 117.2 50.7 144.6 42 156.7C33.3 168.8 16.6 165.5 0 162.2L0 0Z" fill="#8e00b6"></path></g></svg>