<svg id="visual" viewBox="0 0 900 600" width="900" height="600" xmlns="http://www.w3.org/2000/svg" xmlns:xlink="http://www.w3.org/1999/xlink" version="1.1"><rect x="0" y="0" width="900" height="600" fill="#171027"></rect><defs><linearGradient id="grad1_0" x1="33.3%" y1="0%" x2="100%" y2="100%"><stop offset="20%" stop-color="#8e00b6" stop-opacity="1"></stop><stop offset="80%" stop-color="#8e00b6" stop-opacity="1"></stop></linearGradient></defs><defs><linearGradient id="grad1_1" x1="33.3%" y1="0%" x2="100%" y2="100%"><stop offset="20%" stop-color="#8e00b6" stop-opacity="1"></stop><stop offset="80%" stop-color="#171027" stop-opacity="1"></stop></linearGradient></defs><defs><linearGradient id="grad2_0" x1="0%" y1="0%" x2="66.7%" y2="100%"><stop offset="20%" stop-color="#8e00b6" stop-opacity="1"></stop><stop offset="80%" stop-color="#8e00b6" stop-opacity="1"></stop></linearGradient></defs><defs><linearGradient id="grad2_1" x1="0%" y1="0%" x2="66.7%" y2="100%"><stop offset="20%" stop-color="#171027" stop-opacity="1"></stop><stop offset="80%" stop-color="#8e00b6" stop-opacity="1"></stop></linearGradient></defs><g transform="translate(900, 0)"><path d="M0 324.5C-28.4 317.1 -56.9 309.7 -79.5 296.5C-102.1 283.3 -118.8 264.3 -148 256.3C-177.2 248.4 -218.7 251.6 -229.5 229.5C-240.2 207.3 -220.3 160 -230.4 133C-240.5 106 -280.7 99.5 -301.4 80.8C-322.1 62 -323.3 31 -324.5 0L0 0Z" fill="#451d70"></path><path d="M0 162.2C-14.2 158.6 -28.4 154.9 -39.7 148.3C-51 141.7 -59.4 132.1 -74 128.2C-88.6 124.2 -109.3 125.8 -114.7 114.7C-120.1 103.7 -110.1 80 -115.2 66.5C-120.2 53 -140.3 49.8 -150.7 40.4C-161 31 -161.6 15.5 -162.2 0L0 0Z" fill="#8e00b6"></path></g><g transform="translate(0, 600)"><path d="M0 -324.5C25.2 -306.2 50.4 -288 74.5 -278.2C98.7 -268.4 121.9 -267.1 151.5 -262.4C181.1 -257.7 217 -249.6 222.7 -222.7C228.4 -195.8 203.9 -150.1 219.1 -126.5C234.3 -102.9 289.3 -101.4 313.4 -84C337.6 -66.6 331.1 -33.3 324.5 0L0 0Z" fill="#451d70"></path><path d="M0 -162.2C12.6 -153.1 25.2 -144 37.3 -139.1C49.4 -134.2 61 -133.5 75.7 -131.2C90.5 -128.9 108.5 -124.8 111.4 -111.4C114.2 -97.9 102 -75.1 109.6 -63.3C117.2 -51.4 144.6 -50.7 156.7 -42C168.8 -33.3 165.5 -16.6 162.2 0L0 0Z" fill="#8e00b6"></path></g></svg>