<svg id="visual" viewBox="0 0 900 600" width="900" height="600" xmlns="http://www.w3.org/2000/svg" xmlns:xlink="http://www.w3.org/1999/xlink" version="1.1"><rect x="0" y="0" width="900" height="600" fill="#171027"></rect><path d="M0 417L21.5 415.3C43 413.7 86 410.3 128.8 408.8C171.7 407.3 214.3 407.7 257.2 402.5C300 397.3 343 386.7 385.8 380C428.7 373.3 471.3 370.7 514.2 379.7C557 388.7 600 409.3 642.8 419.3C685.7 429.3 728.3 428.7 771.2 431.5C814 434.3 857 440.7 878.5 443.8L900 447L900 601L878.5 601C857 601 814 601 771.2 601C728.3 601 685.7 601 642.8 601C600 601 557 601 514.2 601C471.3 601 428.7 601 385.8 601C343 601 300 601 257.2 601C214.3 601 171.7 601 128.8 601C86 601 43 601 21.5 601L0 601Z" fill="#4c0395"></path><path d="M0 399L21.5 398.3C43 397.7 86 396.3 128.8 402C171.7 407.7 214.3 420.3 257.2 425.2C300 430 343 427 385.8 424.8C428.7 422.7 471.3 421.3 514.2 422.3C557 423.3 600 426.7 642.8 434.3C685.7 442 728.3 454 771.2 457.3C814 460.7 857 455.3 878.5 452.7L900 450L900 601L878.5 601C857 601 814 601 771.2 601C728.3 601 685.7 601 642.8 601C600 601 557 601 514.2 601C471.3 601 428.7 601 385.8 601C343 601 300 601 257.2 601C214.3 601 171.7 601 128.8 601C86 601 43 601 21.5 601L0 601Z" fill="#610da9"></path><path d="M0 472L21.5 477C43 482 86 492 128.8 496.2C171.7 500.3 214.3 498.7 257.2 494.8C300 491 343 485 385.8 485.3C428.7 485.7 471.3 492.3 514.2 493C557 493.7 600 488.3 642.8 490.2C685.7 492 728.3 501 771.2 494.7C814 488.3 857 466.7 878.5 455.8L900 445L900 601L878.5 601C857 601 814 601 771.2 601C728.3 601 685.7 601 642.8 601C600 601 557 601 514.2 601C471.3 601 428.7 601 385.8 601C343 601 300 601 257.2 601C214.3 601 171.7 601 128.8 601C86 601 43 601 21.5 601L0 601Z" fill="#7717bd"></path><path d="M0 523L21.5 523.3C43 523.7 86 524.3 128.8 526.2C171.7 528 214.3 531 257.2 531.5C300 532 343 530 385.8 528.5C428.7 527 471.3 526 514.2 519.2C557 512.3 600 499.7 642.8 497.7C685.7 495.7 728.3 504.3 771.2 503.7C814 503 857 493 878.5 488L900 483L900 601L878.5 601C857 601 814 601 771.2 601C728.3 601 685.7 601 642.8 601C600 601 557 601 514.2 601C471.3 601 428.7 601 385.8 601C343 601 300 601 257.2 601C214.3 601 171.7 601 128.8 601C86 601 43 601 21.5 601L0 601Z" fill="#8e20d1"></path><path d="M0 567L21.5 561.8C43 556.7 86 546.3 128.8 543.3C171.7 540.3 214.3 544.7 257.2 546.8C300 549 343 549 385.8 552.3C428.7 555.7 471.3 562.3 514.2 560.8C557 559.3 600 549.7 642.8 542.2C685.7 534.7 728.3 529.3 771.2 528C814 526.7 857 529.3 878.5 530.7L900 532L900 601L878.5 601C857 601 814 601 771.2 601C728.3 601 685.7 601 642.8 601C600 601 557 601 514.2 601C471.3 601 428.7 601 385.8 601C343 601 300 601 257.2 601C214.3 601 171.7 601 128.8 601C86 601 43 601 21.5 601L0 601Z" fill="#a529e5"></path></svg>