<svg id="visual" viewBox="0 0 900 600" width="900" height="600" xmlns="http://www.w3.org/2000/svg" xmlns:xlink="http://www.w3.org/1999/xlink" version="1.1"><rect x="0" y="0" width="900" height="600" fill="#4c0a78"></rect><path d="M0 353L129 353L129 308L257 308L257 372L386 372L386 302L514 302L514 338L643 338L643 299L771 299L771 361L900 361L900 318L900 601L900 601L771 601L771 601L643 601L643 601L514 601L514 601L386 601L386 601L257 601L257 601L129 601L129 601L0 601Z" fill="#560090"></path><path d="M0 457L129 457L129 357L257 357L257 415L386 415L386 374L514 374L514 448L643 448L643 450L771 450L771 396L900 396L900 384L900 601L900 601L771 601L771 601L643 601L643 601L514 601L514 601L386 601L386 601L257 601L257 601L129 601L129 601L0 601Z" fill="#7700c6"></path><path d="M0 468L129 468L129 483L257 483L257 513L386 513L386 519L514 519L514 487L643 487L643 488L771 488L771 490L900 490L900 503L900 601L900 601L771 601L771 601L643 601L643 601L514 601L514 601L386 601L386 601L257 601L257 601L129 601L129 601L0 601Z" fill="#9900ff"></path></svg>