<svg id="visual" viewBox="0 0 900 600" width="900" height="600" xmlns="http://www.w3.org/2000/svg" xmlns:xlink="http://www.w3.org/1999/xlink" version="1.1"><rect x="0" y="0" width="900" height="600" fill="#181027"></rect><path d="M0 361L21.5 360.3C43 359.7 86 358.3 128.8 370.3C171.7 382.3 214.3 407.7 257.2 419C300 430.3 343 427.7 385.8 415C428.7 402.3 471.3 379.7 514.2 366.5C557 353.3 600 349.7 642.8 348.8C685.7 348 728.3 350 771.2 365.2C814 380.3 857 408.7 878.5 422.8L900 437L900 601L878.5 601C857 601 814 601 771.2 601C728.3 601 685.7 601 642.8 601C600 601 557 601 514.2 601C471.3 601 428.7 601 385.8 601C343 601 300 601 257.2 601C214.3 601 171.7 601 128.8 601C86 601 43 601 21.5 601L0 601Z" fill="#4c0295"></path><path d="M0 470L21.5 471C43 472 86 474 128.8 475.3C171.7 476.7 214.3 477.3 257.2 464.7C300 452 343 426 385.8 418.8C428.7 411.7 471.3 423.3 514.2 435.2C557 447 600 459 642.8 458C685.7 457 728.3 443 771.2 430.5C814 418 857 407 878.5 401.5L900 396L900 601L878.5 601C857 601 814 601 771.2 601C728.3 601 685.7 601 642.8 601C600 601 557 601 514.2 601C471.3 601 428.7 601 385.8 601C343 601 300 601 257.2 601C214.3 601 171.7 601 128.8 601C86 601 43 601 21.5 601L0 601Z" fill="#620ca9"></path><path d="M0 482L21.5 487.5C43 493 86 504 128.8 503.7C171.7 503.3 214.3 491.7 257.2 480C300 468.3 343 456.7 385.8 462C428.7 467.3 471.3 489.7 514.2 493.3C557 497 600 482 642.8 478.7C685.7 475.3 728.3 483.7 771.2 488.3C814 493 857 494 878.5 494.5L900 495L900 601L878.5 601C857 601 814 601 771.2 601C728.3 601 685.7 601 642.8 601C600 601 557 601 514.2 601C471.3 601 428.7 601 385.8 601C343 601 300 601 257.2 601C214.3 601 171.7 601 128.8 601C86 601 43 601 21.5 601L0 601Z" fill="#7816bd"></path><path d="M0 505L21.5 503.8C43 502.7 86 500.3 128.8 505.5C171.7 510.7 214.3 523.3 257.2 526.5C300 529.7 343 523.3 385.8 524.3C428.7 525.3 471.3 533.7 514.2 538C557 542.3 600 542.7 642.8 537.2C685.7 531.7 728.3 520.3 771.2 515.7C814 511 857 513 878.5 514L900 515L900 601L878.5 601C857 601 814 601 771.2 601C728.3 601 685.7 601 642.8 601C600 601 557 601 514.2 601C471.3 601 428.7 601 385.8 601C343 601 300 601 257.2 601C214.3 601 171.7 601 128.8 601C86 601 43 601 21.5 601L0 601Z" fill="#8f20d1"></path><path d="M0 572L21.5 570.5C43 569 86 566 128.8 561.5C171.7 557 214.3 551 257.2 548.8C300 546.7 343 548.3 385.8 552.3C428.7 556.3 471.3 562.7 514.2 564.3C557 566 600 563 642.8 555.7C685.7 548.3 728.3 536.7 771.2 530.3C814 524 857 523 878.5 522.5L900 522L900 601L878.5 601C857 601 814 601 771.2 601C728.3 601 685.7 601 642.8 601C600 601 557 601 514.2 601C471.3 601 428.7 601 385.8 601C343 601 300 601 257.2 601C214.3 601 171.7 601 128.8 601C86 601 43 601 21.5 601L0 601Z" fill="#a629e5"></path></svg>