<svg id="visual" viewBox="0 0 900 600" width="900" height="600" xmlns="http://www.w3.org/2000/svg" xmlns:xlink="http://www.w3.org/1999/xlink" version="1.1"><rect x="0" y="0" width="900" height="600" fill="#50097c"></rect><path d="M0 183L21.5 216C43 249 86 315 128.8 339.3C171.7 363.7 214.3 346.3 257.2 357C300 367.7 343 406.3 385.8 407.8C428.7 409.3 471.3 373.7 514.2 352.7C557 331.7 600 325.3 642.8 338.7C685.7 352 728.3 385 771.2 373.2C814 361.3 857 304.7 878.5 276.3L900 248L900 601L878.5 601C857 601 814 601 771.2 601C728.3 601 685.7 601 642.8 601C600 601 557 601 514.2 601C471.3 601 428.7 601 385.8 601C343 601 300 601 257.2 601C214.3 601 171.7 601 128.8 601C86 601 43 601 21.5 601L0 601Z" fill="#20064d"></path><path d="M0 344L21.5 353.3C43 362.7 86 381.3 128.8 371C171.7 360.7 214.3 321.3 257.2 309.3C300 297.3 343 312.7 385.8 333.5C428.7 354.3 471.3 380.7 514.2 375.5C557 370.3 600 333.7 642.8 345.2C685.7 356.7 728.3 416.3 771.2 448C814 479.7 857 483.3 878.5 485.2L900 487L900 601L878.5 601C857 601 814 601 771.2 601C728.3 601 685.7 601 642.8 601C600 601 557 601 514.2 601C471.3 601 428.7 601 385.8 601C343 601 300 601 257.2 601C214.3 601 171.7 601 128.8 601C86 601 43 601 21.5 601L0 601Z" fill="#390a67"></path><path d="M0 364L21.5 366.5C43 369 86 374 128.8 391.7C171.7 409.3 214.3 439.7 257.2 438.8C300 438 343 406 385.8 404.5C428.7 403 471.3 432 514.2 451.3C557 470.7 600 480.3 642.8 471.3C685.7 462.3 728.3 434.7 771.2 428.5C814 422.3 857 437.7 878.5 445.3L900 453L900 601L878.5 601C857 601 814 601 771.2 601C728.3 601 685.7 601 642.8 601C600 601 557 601 514.2 601C471.3 601 428.7 601 385.8 601C343 601 300 601 257.2 601C214.3 601 171.7 601 128.8 601C86 601 43 601 21.5 601L0 601Z" fill="#550d80"></path><path d="M0 453L21.5 459.8C43 466.7 86 480.3 128.8 473.5C171.7 466.7 214.3 439.3 257.2 436C300 432.7 343 453.3 385.8 450.5C428.7 447.7 471.3 421.3 514.2 416.5C557 411.7 600 428.3 642.8 444.7C685.7 461 728.3 477 771.2 480.8C814 484.7 857 476.3 878.5 472.2L900 468L900 601L878.5 601C857 601 814 601 771.2 601C728.3 601 685.7 601 642.8 601C600 601 557 601 514.2 601C471.3 601 428.7 601 385.8 601C343 601 300 601 257.2 601C214.3 601 171.7 601 128.8 601C86 601 43 601 21.5 601L0 601Z" fill="#740d98"></path><path d="M0 464L21.5 479.7C43 495.3 86 526.7 128.8 534.2C171.7 541.7 214.3 525.3 257.2 525C300 524.7 343 540.3 385.8 544.2C428.7 548 471.3 540 514.2 541C557 542 600 552 642.8 557.3C685.7 562.7 728.3 563.3 771.2 551.3C814 539.3 857 514.7 878.5 502.3L900 490L900 601L878.5 601C857 601 814 601 771.2 601C728.3 601 685.7 601 642.8 601C600 601 557 601 514.2 601C471.3 601 428.7 601 385.8 601C343 601 300 601 257.2 601C214.3 601 171.7 601 128.8 601C86 601 43 601 21.5 601L0 601Z" fill="#9505b0"></path></svg>