<svg id="visual" viewBox="0 0 900 600" width="900" height="600" xmlns="http://www.w3.org/2000/svg" xmlns:xlink="http://www.w3.org/1999/xlink" version="1.1"><rect x="0" y="0" width="900" height="600" fill="#171027"></rect><path d="M0 466L21.5 455.3C43 444.7 86 423.3 128.8 413.3C171.7 403.3 214.3 404.7 257.2 414.2C300 423.7 343 441.3 385.8 449.5C428.7 457.7 471.3 456.3 514.2 447.2C557 438 600 421 642.8 418.5C685.7 416 728.3 428 771.2 440.8C814 453.7 857 467.3 878.5 474.2L900 481L900 601L878.5 601C857 601 814 601 771.2 601C728.3 601 685.7 601 642.8 601C600 601 557 601 514.2 601C471.3 601 428.7 601 385.8 601C343 601 300 601 257.2 601C214.3 601 171.7 601 128.8 601C86 601 43 601 21.5 601L0 601Z" fill="#a300de"></path><path d="M0 474L21.5 473.2C43 472.3 86 470.7 128.8 474.7C171.7 478.7 214.3 488.3 257.2 491C300 493.7 343 489.3 385.8 492C428.7 494.7 471.3 504.3 514.2 506.5C557 508.7 600 503.3 642.8 492.7C685.7 482 728.3 466 771.2 458.8C814 451.7 857 453.3 878.5 454.2L900 455L900 601L878.5 601C857 601 814 601 771.2 601C728.3 601 685.7 601 642.8 601C600 601 557 601 514.2 601C471.3 601 428.7 601 385.8 601C343 601 300 601 257.2 601C214.3 601 171.7 601 128.8 601C86 601 43 601 21.5 601L0 601Z" fill="#8e05bc"></path><path d="M0 494L21.5 502.3C43 510.7 86 527.3 128.8 527.7C171.7 528 214.3 512 257.2 509.3C300 506.7 343 517.3 385.8 520.2C428.7 523 471.3 518 514.2 515.8C557 513.7 600 514.3 642.8 519C685.7 523.7 728.3 532.3 771.2 536.5C814 540.7 857 540.3 878.5 540.2L900 540L900 601L878.5 601C857 601 814 601 771.2 601C728.3 601 685.7 601 642.8 601C600 601 557 601 514.2 601C471.3 601 428.7 601 385.8 601C343 601 300 601 257.2 601C214.3 601 171.7 601 128.8 601C86 601 43 601 21.5 601L0 601Z" fill="#790a9b"></path><path d="M0 536L21.5 541.5C43 547 86 558 128.8 564.2C171.7 570.3 214.3 571.7 257.2 572.7C300 573.7 343 574.3 385.8 573.3C428.7 572.3 471.3 569.7 514.2 566.5C557 563.3 600 559.7 642.8 556.3C685.7 553 728.3 550 771.2 552.5C814 555 857 563 878.5 567L900 571L900 601L878.5 601C857 601 814 601 771.2 601C728.3 601 685.7 601 642.8 601C600 601 557 601 514.2 601C471.3 601 428.7 601 385.8 601C343 601 300 601 257.2 601C214.3 601 171.7 601 128.8 601C86 601 43 601 21.5 601L0 601Z" fill="#640d7c"></path></svg>